<svg xmlns="http://www.w3.org/2000/svg" version="1.1" xmlns:xlink="http://www.w3.org/1999/xlink" xmlns:svgjs="http://svgjs.dev/svgjs" width="2000" height="323" viewBox="0 0 2000 323"><g transform="matrix(1,0,0,1,-1.2121211264350222,-0.661293583229309)"><svg viewBox="0 0 396 64" data-background-color="#444444" preserveAspectRatio="xMidYMid meet" height="323" width="2000" xmlns="http://www.w3.org/2000/svg" xmlns:xlink="http://www.w3.org/1999/xlink"><g id="tight-bounds" transform="matrix(1,0,0,1,0.24000001696583695,0.13103030751292977)"><svg viewBox="0 0 395.52 63.737932529576476" height="63.737932529576476" width="395.52"><g><svg viewBox="0 0 491.2636360511376 79.16699152725987" height="63.737932529576476" width="395.52"><g transform="matrix(1,0,0,1,95.74363605113766,22.02914406769537)"><svg viewBox="0 0 395.52 35.10870339186913" height="35.10870339186913" width="395.52"><g id="textblocktransform"><svg viewBox="0 0 395.52 35.10870339186913" height="35.10870339186913" width="395.52" id="textblock"><g><svg viewBox="0 0 395.52 35.10870339186913" height="35.10870339186913" width="395.52"><g transform="matrix(1,0,0,1,0,0)"><svg width="395.52" viewBox="2 -35.9 415.67 36.9" height="35.10870339186913" data-palette-color="#ffffff"><path d="M2-35L8.7-35 17.3-35.5Q24.1-35.5 25.95-32.2L25.95-32.2Q26.7-30.85 26.7-28.9L26.7-28.9Q26.7-23.1 21.9-19.7L21.9-19.7Q27-18.75 28.5-15.7L28.5-15.7Q29.2-14.2 29.2-12.1L29.2-12.1Q29.2-7.05 24.98-3.53 20.75 0 15 0L15 0 2 0 2-1.5 3.7-1.5Q5.2-1.5 5.6-2.05 6-2.6 6-3.7L6-3.7 6-31.3Q6-32.5 5.58-33 5.15-33.5 3.7-33.5L3.7-33.5 2-33.5 2-35ZM14.1-32.8L14.1-32.8Q12.1-32.8 10.4-32.5L10.4-32.5 10.4-19.4 16.5-19.4Q19.25-19.4 21.18-21.43 23.1-23.45 23.1-25.8L23.1-25.8Q23.1-29.2 20.4-31 17.7-32.8 14.1-32.8ZM15-17.3L15-17.3 10.4-17.3 10.4-3.1Q13.45-2.2 16.1-2.2L16.1-2.2Q20.1-2.2 22.6-4.17 25.1-6.15 25.1-9.5L25.1-9.5Q25.1-13.95 21.9-15.7L21.9-15.7Q19.05-17.3 15-17.3ZM61.5-6.9L59.8 0 33 0 33-1.4 34.7-1.4Q36.15-1.4 36.62-1.95 37.1-2.5 37.1-3.7L37.1-3.7 37.1-31.3Q37.1-32.3 36.47-32.95 35.85-33.6 34.7-33.6L34.7-33.6 33-33.6 33-35 59.4-35 59.8-28.1 58.4-27.8Q58.4-29.6 56.95-31.25 55.5-32.9 52.9-32.9L52.9-32.9 43.8-32.9Q42.3-32.9 41.85-32.33 41.4-31.75 41.4-30.7L41.4-30.7 41.4-19.3 51.4-19.3Q52.15-19.3 52.55-19.38 52.95-19.45 53.27-19.9 53.6-20.35 53.6-21.2L53.6-21.2 53.6-23.5 55.1-23.5 55.1-13.1 53.6-13.1 53.6-15.2Q53.6-16.45 53.05-16.82 52.5-17.2 51.4-17.2L51.4-17.2 41.4-17.2 41.4-4.3Q41.4-3.25 41.85-2.68 42.3-2.1 43.8-2.1L43.8-2.1 53.3-2.1Q55.95-2.1 57.97-3.8 60-5.5 60.1-7.1L60.1-7.1 61.5-6.9ZM86.4-1.4L86.4 0 73.7 0 73.7-1.4 75.3-1.4Q76.8-1.4 77.3-2 77.8-2.6 77.8-3.6L77.8-3.6 77.8-14.5 70.4-29.3Q68.34-33.6 65.09-33.6L65.09-33.6 64-33.6 64-35 75.3-35 75.3-33.6 74.7-33.6Q73.9-33.6 73.9-33.1 73.9-32.6 74.5-31.5L74.5-31.5 80.8-18.1 87.2-31.5Q87.8-32.7 87.8-33L87.8-33Q87.8-33.6 86.3-33.6L86.3-33.6 85-33.6 85-35 95.09-35 95.09-33.6 94.3-33.6Q90.55-33.6 88.9-30.1L88.9-30.1 82.09-16.5 82.09-3.6Q82.09-2.6 82.59-2 83.09-1.4 84.59-1.4L84.59-1.4 86.4-1.4ZM110.44 1L110.44 1Q103.89 1 99.52-4.05 95.14-9.1 95.14-15.7L95.14-15.7Q95.14-19.8 96.94-23.6 98.74-27.4 101.57-30.05 104.39-32.7 107.82-34.3 111.24-35.9 114.44-35.9L114.44-35.9Q120.94-35.9 125.34-30.85 129.74-25.8 129.74-19.2L129.74-19.2Q129.74-14.3 127.09-9.63 124.44-4.95 119.92-1.98 115.39 1 110.44 1ZM113.54-2.8L113.54-2.8Q118.99-2.8 122.72-6.8 126.44-10.8 126.44-16.7 126.44-22.6 122.12-27.3 117.79-32 111.64-32L111.64-32Q106.39-32 102.42-28.23 98.44-24.45 98.44-19.2L98.44-19.2Q98.44-12.4 102.62-7.6 106.79-2.8 113.54-2.8ZM162.64 0.8L162.64 0.8 140.54-28.8 140.54-3.7Q140.54-1.5 143.64-1.5L143.64-1.5 145.54-1.5 145.54 0 133.54 0 133.54-1.5 135.14-1.5Q138.24-1.5 138.24-3.7L138.24-3.7 138.24-31.3Q138.24-33.5 135.14-33.5L135.14-33.5 133.54-33.5 133.54-35 141.44-35 162.04-7.3 162.04-31.3Q162.04-33.5 159.04-33.5L159.04-33.5 157.34-33.5 157.34-35 169.34-35 169.34-33.5 167.44-33.5Q164.34-33.5 164.34-31.3L164.34-31.3 164.34-0.2Q163.79-0.2 163.17 0.28 162.54 0.75 162.64 0.8ZM190.14-32.2L181.84-31.7 181.84-4.5Q184.74-2.8 189.74-2.8L189.74-2.8Q195.69-2.8 200.24-6.05L200.24-6.05Q202.54-7.7 203.89-10.65 205.24-13.6 205.24-17.32 205.24-21.05 203.76-23.95 202.29-26.85 199.94-28.6L199.94-28.6Q195.19-32.2 190.14-32.2L190.14-32.2ZM173.44-35L181.14-35 193.54-35.5Q200.49-35.5 204.51-31 208.54-26.5 208.54-18.98 208.54-11.45 202.76-5.73 196.99 0 189.24 0L189.24 0 173.44 0 173.44-1.5 175.14-1.5Q176.64-1.5 177.09-2.05 177.54-2.6 177.54-3.7L177.54-3.7 177.54-31.3Q177.54-32.45 177.06-32.98 176.59-33.5 175.14-33.5L175.14-33.5 173.44-33.5 173.44-35ZM211.84-2.4L211.84-2.4 212.54-8.9 214.24-8.8Q214.24-6.05 217.51-4.38 220.79-2.7 224.96-2.7 229.14-2.7 231.24-3.98 233.34-5.25 233.34-7.2L233.34-7.2Q233.34-10.5 229.84-13.1L229.84-13.1Q228.39-14.15 226.79-14.95L226.79-14.95Q223.14-16.85 222.21-17.38 221.29-17.9 220.14-18.45 218.99-19 218.01-19.63 217.04-20.25 215.94-21.15L215.94-21.15Q213.44-23.15 213.44-25.63 213.44-28.1 214.31-29.95 215.19-31.8 216.51-32.85 217.84-33.9 219.64-34.6L219.64-34.6Q222.69-35.7 226.46-35.7 230.24-35.7 233.74-33.8L233.74-33.8 233.14-28 231.44-28Q231.44-32.7 223.54-32.7L223.54-32.7Q219.89-32.7 218.06-31.55 216.24-30.4 216.24-28.4L216.24-28.4Q216.24-25.2 226.64-20.7L226.64-20.7Q233.49-17.75 235.39-14.15L235.39-14.15Q236.34-12.35 236.34-10.2L236.34-10.2Q236.34-5 232.16-2.15 227.99 0.7 222.09 0.7 216.19 0.7 211.84-2.4ZM259.53-1.4L259.53 0 246.53 0 246.53-1.4 248.53-1.4Q250.03-1.4 250.43-1.98 250.83-2.55 250.83-3.6L250.83-3.6 250.83-30.6Q250.83-31.35 250.73-31.78 250.63-32.2 250.11-32.55 249.58-32.9 248.53-32.9L248.53-32.9 245.53-32.9Q242.88-32.9 241.46-31.28 240.03-29.65 239.93-27.8L239.93-27.8 238.53-28.1 239.03-35 267.13-35 267.63-28.1 266.23-27.8Q266.13-29.6 264.68-31.25 263.23-32.9 260.63-32.9L260.63-32.9 257.63-32.9Q256.53-32.9 255.98-32.52 255.43-32.15 255.33-31.75 255.23-31.35 255.23-30.6L255.23-30.6 255.23-3.6Q255.23-2.9 255.33-2.5 255.43-2.1 255.98-1.75 256.53-1.4 257.63-1.4L257.63-1.4 259.53-1.4ZM270.33-35L278.03-35 287.53-35.5Q291.93-35.5 294.73-33.65 297.53-31.8 297.53-28.6L297.53-28.6Q297.53-24.15 295.13-21.35 292.73-18.55 289.23-17.1L289.23-17.1 297.33-4.9Q297.83-4.1 299.26-2.75 300.68-1.4 301.83-1.4L301.83-1.4 302.73-1.4 302.73 0 295.33 0Q295.48 0 294.38-1.5 293.28-3 293.13-3.3L293.13-3.3 284.83-16.1Q284.33-16 282.83-16 281.33-16 280.43-16.1L280.43-16.1 280.03-18.1Q280.73-18 283.03-18 285.33-18 287.63-18.6 289.93-19.2 291.68-20.88 293.43-22.55 293.43-25.2L293.43-25.2Q293.43-32.6 283.93-32.6L283.93-32.6 278.73-32.4 278.73-3.7Q278.73-2.95 278.83-2.55 278.93-2.15 279.48-1.78 280.03-1.4 281.13-1.4L281.13-1.4 283.03-1.4 283.03 0 270.33 0 270.33-1.4 271.93-1.4Q273.03-1.4 273.58-1.78 274.13-2.15 274.23-2.55 274.33-2.95 274.33-3.7L274.33-3.7 274.33-31.3Q274.33-32.45 273.86-32.98 273.38-33.5 271.93-33.5L271.93-33.5 270.33-33.5 270.33-35ZM334.13-6.9L332.43 0 305.63 0 305.63-1.4 307.33-1.4Q308.78-1.4 309.25-1.95 309.73-2.5 309.73-3.7L309.73-3.7 309.73-31.3Q309.73-32.3 309.1-32.95 308.48-33.6 307.33-33.6L307.33-33.6 305.63-33.6 305.63-35 332.03-35 332.43-28.1 331.03-27.8Q331.03-29.6 329.58-31.25 328.13-32.9 325.53-32.9L325.53-32.9 316.43-32.9Q314.93-32.9 314.48-32.33 314.03-31.75 314.03-30.7L314.03-30.7 314.03-19.3 324.03-19.3Q324.78-19.3 325.18-19.38 325.58-19.45 325.9-19.9 326.23-20.35 326.23-21.2L326.23-21.2 326.23-23.5 327.73-23.5 327.73-13.1 326.23-13.1 326.23-15.2Q326.23-16.45 325.68-16.82 325.13-17.2 324.03-17.2L324.03-17.2 314.03-17.2 314.03-4.3Q314.03-3.25 314.48-2.68 314.93-2.1 316.43-2.1L316.43-2.1 325.93-2.1Q328.58-2.1 330.6-3.8 332.63-5.5 332.73-7.1L332.73-7.1 334.13-6.9ZM371.68-1.4L371.68 0 358.88 0 358.88-1.4 360.48-1.4Q362.68-1.4 362.68-2.8L362.68-2.8Q362.68-3 362.18-4.5L362.18-4.5 358.78-13.4 346.18-13.4 342.88-4.9Q342.88-4.8 342.53-3.68 342.18-2.55 342.18-2.13 342.18-1.7 342.73-1.55 343.28-1.4 345.08-1.4L345.08-1.4 345.88-1.4 345.88 0 336.08 0 336.08-1.4 336.78-1.4Q338.43-1.4 339.18-1.98 339.93-2.55 340.48-3.9L340.48-3.9 351.48-32.6Q351.73-32.65 352.38-33.33 353.03-34 353.58-34.73 354.13-35.45 354.13-35.55 354.13-35.65 354.08-35.7L354.08-35.7 354.78-35.9 367.08-3.7Q367.63-2.55 368.2-1.98 368.78-1.4 369.88-1.4L369.88-1.4 371.68-1.4ZM346.98-15.5L357.88-15.5 352.48-29.8 346.98-15.5ZM406.77-29.9L395.57-0.5Q395.52-0.5 395.32-0.5 395.12-0.5 393.77 0.5L393.77 0.5 382.27-29.6 379.87-3.4Q379.77-2.6 380.62-2.05 381.47-1.5 382.97-1.5L382.97-1.5 385.07-1.5 385.07 0 373.07 0 373.07-1.5 374.67-1.5Q377.57-1.5 377.77-3.7L377.77-3.7 380.27-31.3Q380.37-32.25 379.6-32.88 378.82-33.5 377.17-33.5L377.17-33.5 375.57-33.5 375.57-35 384.97-35 395.67-6.8 406.47-35 415.47-35 415.47-33.6 413.47-33.6Q411.07-33.6 411.07-31.75L411.07-31.75Q411.07-31.6 411.07-31.4L411.07-31.4 413.37-3.7Q413.47-2.55 413.95-2.02 414.42-1.5 415.67-1.5L415.67-1.5 417.67-1.5 417.67 0 404.87 0 404.87-1.5 406.57-1.5Q407.97-1.5 408.47-1.95 408.97-2.4 408.97-2.93 408.97-3.45 408.97-3.7L408.97-3.7 406.77-29.9Z" opacity="1" transform="matrix(1,0,0,1,0,0)" fill="#ffffff" class="undefined-text-0" data-fill-palette-color="primary" id="text-0"></path></svg></g></svg></g></svg></g></svg></g><g><svg viewBox="0 0 79.16699152725987 79.16699152725987" height="79.16699152725987" width="79.16699152725987"><g><svg></svg></g><g id="icon-0"><svg viewBox="0 0 79.16699152725987 79.16699152725987" height="79.16699152725987" width="79.16699152725987"><g><path d="M0 39.584c0-21.861 17.722-39.584 39.584-39.584 21.861 0 39.584 17.722 39.583 39.584 0 21.861-17.722 39.584-39.584 39.583-21.861 0-39.584-17.722-39.583-39.584zM39.584 76.001c20.113 0 36.417-16.305 36.417-36.418 0-20.113-16.305-36.417-36.418-36.417-20.113 0-36.417 16.305-36.417 36.417 0 20.113 16.305 36.417 36.417 36.418z" data-fill-palette-color="accent" fill="#ff4136" stroke="transparent"></path></g><g transform="matrix(1,0,0,1,22.646669354982954,22.474489526291933)"><svg viewBox="0 0 33.87365281729396 34.218012474676" height="34.218012474676" width="33.87365281729396"><g><svg xmlns="http://www.w3.org/2000/svg" xmlns:xlink="http://www.w3.org/1999/xlink" version="1.1" x="0" y="0" viewBox="9.596731902927017 8.455555555555556 80.92179324859818 81.74444444444444" style="enable-background:new 0 0 100 100;" xml:space="preserve" height="34.218012474676" width="33.87365281729396" class="icon-g$-0" data-fill-palette-color="accent" id="g$-0"><path d="M20.8 90.2c-1.8 0-3.7-0.4-5.3-1.4-3.8-2-6-6-5.9-10.3l1.9-59.2c0.1-3.6 1.8-6.8 4.7-8.8C19 8.5 22.6 7.9 26 9l56.7 17.9c4.1 1.3 7.1 4.7 7.7 9s-1.1 8.4-4.6 10.9L27.3 88.1C25.3 89.5 23 90.2 20.8 90.2zM22.6 12.5c-1.5 0-2.9 0.5-4.2 1.3-1.9 1.3-3 3.4-3.1 5.7l-1.9 59.2c-0.1 2.8 1.3 5.3 3.8 6.6 2.5 1.3 5.3 1.2 7.6-0.5l58.6-41.3c2.3-1.6 3.4-4.3 3-7-0.4-2.8-2.3-5-5-5.8L24.8 12.8C24.1 12.6 23.3 12.5 22.6 12.5z" fill="#ff4136" data-fill-palette-color="accent"></path></svg></g></svg></g></svg></g></svg></g></svg></g><defs></defs></svg><rect width="395.52" height="63.737932529576476" fill="none" stroke="none" visibility="hidden"></rect></g></svg></g></svg>